<svg xmlns="http://www.w3.org/2000/svg" viewBox="0 0 512 512" role="img" aria-label="Lull">
  <defs><clipPath id="sky"><path d="M0 0 H512 V272 H420 C362 294 312 294 256 272 C200 250 150 250 92 272 H0 Z"/></clipPath></defs>
  <g fill="currentColor" stroke="currentColor" stroke-linecap="round">
    <circle cx="256" cy="232" r="138" clip-path="url(#sky)" stroke="none"/>
    <path d="M92 272 C150 250 200 250 256 272 C312 294 362 294 420 272" fill="none" stroke-width="14"/>
    <line x1="166" y1="324" x2="346" y2="324" stroke-width="14"/>
    <line x1="206" y1="360" x2="306" y2="360" stroke-width="12" opacity="0.7"/>
    <line x1="238" y1="392" x2="274" y2="392" stroke-width="10" opacity="0.45"/>
    <path d="M378 92 C381 110 386 115 404 118 C386 121 381 126 378 144 C375 126 370 121 352 118 C370 115 375 110 378 92 Z" stroke="none"/>
  </g>
</svg>
